<?xml version="1.0" encoding="UTF-8"?>
<svg id="Layer_2" data-name="Layer 2" xmlns="http://www.w3.org/2000/svg" viewBox="0 0 215.4 215.4">
  <defs>
    <style>
      .cls-1 {
        fill: #fff;
      }

      .cls-1, .cls-2 {
        stroke-width: 0px;
      }

      .cls-2 {
        fill: #fec35c;
      }
    </style>
  </defs>
  <g id="Layer_1-2" data-name="Layer 1">
    <g>
      <rect class="cls-2" width="215.4" height="215.4" rx="41.99" ry="41.99"/>
      <path class="cls-1" d="m140.63,116.01c-.22,1.15-1.22,1.94-2.34,1.94-1.48.02-2.64-1.38-2.35-2.84,1.71-8.22-6.5-13.31-13.35-8.57.97,2.44,3.65,11.43-1.09,11.4-1.32-.1-2.3-1.26-2.19-2.57.63-8.02-5.14-15.04-12.88-15.65-4.93-.39-9.77,1.98-12.63,6.17-.74,1.09-2.23,1.37-3.32.63-1.09-.74-1.37-2.23-.63-3.32,6.85-10.62,23.18-10.98,30.34-.8,5.08-3.24,11.22-3.32,15.68.01,3.97,3,5.79,8.21,4.77,13.59Zm33.33,16.16c4.94,4.1,1.78,12.66-4.72,12.52-9.75-.31-9.3-14.66.43-14.29,1.02-3.15,2.16-6.32,2.79-9.6h-5.7c-.75,6.68-6.43,11.9-13.31,11.9h-22.28l16.51,21.58c.09.11.12.25.18.37,10.64-2.97,13.32,13.28,2.27,13.93-5.61.17-9.17-6.65-5.95-11.16-.09-.09-.21-.13-.3-.24l-18.73-24.48h-5.25l6.64,21.58c9.24.59,8.96,14.09-.3,14.3-6.84.07-9.76-8.97-4.26-12.9l-7.07-22.98h-5.39v43.04c0,1.32-1.07,2.39-2.39,2.39-6.23-.12-12.62-.58-18.46-2.54-4.05,5.06-12.74,1.93-12.59-4.63.3-9.67,14.48-9.35,14.3.31,4.67,1.13,9.48,1.86,14.36,2.01v-40.58h-5.43s-7.97,23.9-7.97,23.9c-.1.24-.24.47-.37.7-.63.77-1.71,1.17-2.67.8-3.52-1.35-7.26-2.91-10.41-5.23-4.46,3.48-11.54-.08-11.36-5.79.57-10.84,16.58-8.54,14.01,2,2.33,1.28,4.66,2.58,7.09,3.56l6.65-19.94c-1.4-.08-29.4.24-29.71-.28l-10.34,7.76c2.74,10.59-13.36,13.06-13.98,2.12-.17-5.59,6.63-9.16,11.13-5.96l7.63-5.72c-11.5-5.43-11.9-20.64-2.77-27.5,0,0-18.01-8.19-18-8.19-.97-.51-1.5-1.56-1.35-2.65.88-3.98,1.79-7.96,3.44-11.5-4.96-4.09-1.8-12.68,4.7-12.53,9.75.31,9.3,14.66-.43,14.29-.91,2.86-1.94,5.78-2.58,8.86l19.78,8.99c2.9-.86,6.68-1.31,10.07-.98-.35-6.51,2.63-12.71,7.93-16.92l-23.33-23.33c-.93-.93-.93-2.44,0-3.38,3.87-3.76,8-7.36,12.62-9.93-1.73-10.33,13.69-11.96,14.17-1.49.2,5.96-7.45,9.43-11.78,5.44-3.39,2.36-6.84,4.78-9.9,7.72l22.35,22.35c3.47-1.71,7.39-2.6,11.27-2.58v-16.65c-7.47-2.67-5.64-13.83,2.39-13.89,8.03.07,9.86,11.23,2.39,13.89v17.15c3.7.7,7.17,2.18,10.09,4.38,3.45-5.05,8.35-8.66,13.8-10.37,0,0,0-31.94,0-31.94.08-.26.03-.55.16-.79.36-1.01,1.5-1.77,2.56-1.54,4.99,1.33,10.08,3.21,14.45,5.92,4.42-3.65,11.69-.12,11.5,5.67-.54,10.7-16.32,8.66-14.07-1.81-3.16-1.6-6.42-3.08-9.81-4.21v27.71c10.6-1.15,20.38,5.28,25.09,14.89l10.81-4.92c-.61-9.84,13.95-10.48,14.27-.61.14,6.34-8.09,9.59-12.31,4.97l-11.01,5.01c1.58,4.99,1.87,10.76.7,16,4.99,1.04,9.02,4.89,10.27,9.85,0,0,8.92,0,8.92,0,1.13.04,2.24.93,2.33,2.11-.44,4.73-1.9,9.61-3.73,14.03Zm-20.51-21.5c-1.71.37-3.21-1.45-2.59-3.08,5.07-14.61-5.25-32.43-19.98-32.13-7.46,0-14.25,4.3-18.16,11.51-.7,1.38-2.71,1.67-3.78.56-10.29-10.68-32.21-4.83-32.33,10.87-.27,1.92,1.33,4.22-.28,5.78-1.88,1.56-4.33-.46-6.53-.1-9.45-.31-15.5,4.97-15.22,13.02-.14,5.58,6.72,11.03,13.02,10.82h85.85c11.43-.37,11.35-16.89,0-17.25Z"/>
    </g>
  </g>
</svg>