<?xml version="1.0" encoding="UTF-8"?>
<svg id="Layer_2" data-name="Layer 2" xmlns="http://www.w3.org/2000/svg" viewBox="0 0 215.4 215.4">
  <defs>
    <style>
      .cls-1 {
        fill: #fff;
      }

      .cls-1, .cls-2 {
        stroke-width: 0px;
      }

      .cls-2 {
        fill: #765da8;
      }
    </style>
  </defs>
  <g id="Layer_1-2" data-name="Layer 1">
    <g>
      <rect class="cls-2" width="215.4" height="215.4" rx="41.99" ry="41.99"/>
      <g>
        <path class="cls-1" d="m103.49,82.46c7.53,0,13.67-6.13,13.67-13.67-.64-18.09-26.7-18.08-27.33,0,0,7.54,6.13,13.67,13.67,13.67Zm0-22.24c11.33.36,11.32,16.78,0,17.14-11.33-.36-11.33-16.78,0-17.14Z"/>
        <path class="cls-1" d="m125.73,85.7c-6.01,0-10.91,4.89-10.91,10.9-.2,7.63-11.36,7.63-11.57,0-.46-14.4-21.33-14.42-21.79,0,0,2.61-1.75,4.8-4.14,5.52l-3.92-10.18c4.57-2.17,7.6-6.75,7.6-12.02v-8.77c0-8.99-7.32-16.31-16.31-16.31h-11.52c-5.86,0-10.63,4.77-10.63,10.63v25.28c0,1.41,1.14,2.55,2.55,2.55h4.52l-4.12,10.73c-.66,1.6.64,3.51,2.38,3.46,0,0,27.8,0,27.8,0,6,0,10.88-4.88,10.88-10.88.2-7.67,11.4-7.65,11.6,0,0,6,4.88,10.88,10.88,10.88s10.88-4.88,10.88-10.88c0-3.2,2.61-5.81,5.81-5.81s5.79,2.61,5.79,5.81c0,1.41,1.14,2.55,2.55,2.55s2.55-1.14,2.55-2.55c0-6.01-4.88-10.9-10.88-10.9Zm-78.07-20.23c0-3.05,2.48-5.53,5.53-5.53h11.52c6.18,0,11.21,5.03,11.21,11.21v8.77c0,3.12-1.72,5.85-4.34,7.25l-7.42-19.27c-.75-2.14-4.02-2.14-4.76,0,0,0-7.81,20.3-7.81,20.3h-3.93v-22.73Zm3.94,36.92l10.18-26.49c2.48,6.45,7.75,20.13,10.2,26.49h-20.38Z"/>
        <path class="cls-1" d="m172.75,101v-51.67c0-1.41-1.14-2.55-2.55-2.55H36.78c-1.41,0-2.55,1.14-2.55,2.55v75.04c0,1.41,1.14,2.55,2.55,2.55h55.83v20.95c0,5.58-4.54,10.12-10.12,10.12h-17.94c-10.68.33-10.72,15.86,0,16.21,0,0,77.84,0,77.84,0,10.69-.33,10.72-15.86,0-16.21,0,0-17.91,0-17.91,0-5.58,0-10.12-4.54-10.12-10.12v-20.95h55.83c1.69.02,2.76-1.55,2.55-3.14,4.22,2.58,6.53,4.35,9.75,2.26,1.23-1.04,4.93-4.22-9.75-25.04ZM39.33,51.89h128.32v42.23c-3.09-3.98-7.78-9.3-10.89-11.45-.41-2.81-1.65-5.59-3.66-7.95-5.45-6.4-7.55-9.42-10.07-15.89-.43-1.11-1.56-1.76-2.74-1.6-1.17.17-2.07,1.13-2.17,2.31-.14,1.68-1.04,3.84-2.07,6.35-1.03,2.53-2.28,5.49-3.08,8.82-1.2,5.95,1.75,16.42,10.8,19,2.6,5.21,9.12,12.26,13.81,17.01H39.33v-58.83Zm112.52,32.34c.19,7.39-8.34,5.5-11.44,1.29-2.92-3.41-2.6-9.05-2.46-9.7.84-3.35,2.06-6.12,3.19-8.89,2.1,3.87,4.53,6.92,8.08,11.09,1.59,1.87,2.53,4.07,2.63,6.2Zm-27.37,78.86h17.91c3.92.06,3.97,5.94,0,6.01,0,0-77.84,0-77.84,0-1.66,0-3.01-1.35-3.01-3.01s1.35-3.01,3.01-3.01h17.94c8.39,0,15.21-6.82,15.21-15.21v-20.95h11.57v20.95c0,8.39,6.82,15.21,15.21,15.21Zm43.16-41.25H39.33v-6.01h123.6c1.57,1.44,3.12,2.78,4.72,4.1v1.92Zm4.13-5.13c-7.76-6.35-16.25-14.71-21.87-22.61,2.8-.72,5.11-2.65,6.23-5.32,7.37,6.76,20.64,26.25,22.33,32.52-1.23-.61-3.34-1.89-6.7-4.59Z"/>
      </g>
    </g>
  </g>
</svg>