<?xml version="1.0" encoding="UTF-8"?>
<svg id="Layer_2" data-name="Layer 2" xmlns="http://www.w3.org/2000/svg" viewBox="0 0 215.4 215.4">
  <defs>
    <style>
      .cls-1 {
        fill: #fff;
      }

      .cls-1, .cls-2 {
        stroke-width: 0px;
      }

      .cls-2 {
        fill: #bcd641;
      }
    </style>
  </defs>
  <g id="Layer_1-2" data-name="Layer 1">
    <g>
      <rect class="cls-2" width="215.4" height="215.4" rx="41.99" ry="41.99"/>
      <path class="cls-1" d="m79.46,78.35c-6-9.38,1.32-22.45,12.52-22.23,1.27,0,2.3,1.03,2.3,2.3s-1.03,2.3-2.3,2.3c-5.54,0-10.05,4.51-10.05,10.05s4.51,10.05,10.05,10.05c1.27,0,2.3,1.03,2.3,2.3-.52,4.97-9.7.83-11.66-1.09-7.41,2.35-4.53,10.46,2.3,9.89,3.63.04,3.03,5.12-.56,4.62-10.77.15-15.09-13.18-4.9-18.19Zm-2.31,29.31c1.27,0,2.3-1.03,2.3-2.3s-1.03-2.3-2.3-2.3c-4.94,0-9.31,2.67-11.97,6.75-2.08-.8-3.57-3.18-3.57-6.03,0-3.5,2.29-6.35,5.11-6.35,1.27,0,2.3-1.03,2.3-2.3s-1.03-2.3-2.3-2.3c-10.88.13-13.23,17.02-3.47,21.13-3.25,9.67,4,21.12,13.9,20.87,3.02-.05,3.03-4.55,0-4.6-13.28-.45-13.27-22.13,0-22.57Zm5.11,19.93c0,6.72,4.91,12.18,10.95,12.18,3.02-.05,3.02-4.55,0-4.6-8.38-.29-8.37-14.87,0-15.16,3.02-.05,3.02-4.55,0-4.6-6.04,0-10.95,5.46-10.95,12.18Zm76.67,18.6c.85.82.94,2.15.22,3.07-4.73,6.04-10.32,11.21-16.6,15.34-.9.6-2.09.49-2.86-.27l-10.39-10.02c-4.79,2.65-9.91,4.55-15.25,5.67v13.87c0,1.14-.84,2.11-1.97,2.28-8.89,1.54-20.61.59-27.59-4.53-7.99,1.83-15.91-5.03-14.95-13.12-10.67-.48-19.84-12.01-17.4-22.46-6.38-2.94-8.95-11.55-4.95-17.41-6.79-6.85-5.54-18.01,2.34-23.65-6.87-11.78,4.04-34.89,17.47-36.27-.38-8.6,9.11-14.93,17.06-11.56,5.52-7.99,18.34-9.41,28.01-7.62,1.13.16,1.97,1.13,1.97,2.28v13.87c5.35,1.12,10.46,3.02,15.25,5.67l10.39-10.02c.77-.75,1.96-.86,2.86-.27,6.29,4.14,11.87,9.3,16.6,15.34.73.93.63,2.26-.22,3.07l-10.16,9.77c3.4,5.17,5.82,10.79,7.19,16.76h14.51c1.14,0,2.11.83,2.27,1.96,1.11,7.33.97,15.02-.41,22.21-.21,1.08-1.16,1.87-2.26,1.87h-14.73c-1.43,5.07-3.64,9.9-6.58,14.38l10.16,9.77Zm-54.78-5.19c43-3.84,43.04-62.48,0-66.34v12.08c3.07.02,15.58,4.01,12.44,8.27-.45.55-1.11.83-1.77.83-.52,0-1.04-.18-1.47-.53-2.6-2.17-5.81-3.52-9.2-3.93v32.91c8.53-1.01,15.16-8,15.16-16.46,0-1.27,1.03-2.3,2.3-2.3s2.3,1.03,2.3,2.3c0,10.99-8.69,20.05-19.76,21.09v12.08Zm-4.6,31.05v-5.22c-11.09-1.15-19.76-10.55-19.76-21.94,0-1.27,1.03-2.3,2.3-2.3s2.3,1.03,2.3,2.3c0,8.85,6.62,16.16,15.16,17.29V43.67c-5.74.81-10.56,3.63-12.64,7.53-.3.56-.82.98-1.44,1.14-.61.16-1.27.07-1.81-.27-1.29-.81-2.77-1.23-4.27-1.23-4.3,0-7.8,3.4-7.8,7.58-.07,1.37.9,2.93-.23,4.09-.51.58-1.28.87-2.04.76-5.16-.67-11.61,4.67-15.02,12.52-3.1,7.07-3.02,14.6.18,18.31.94,1.04.64,2.83-.6,3.5-7.59,4.12-8.86,13.67-2.12,19,.49.41.8,1,.83,1.64.04.64-.19,1.26-.64,1.73-4.01,3.95-1.88,11.07,3.55,12.45,1.25.32,2,1.76,1.55,2.97-3.42,9.02,5.68,19.75,15.14,18.5,1.66-.19,3.01,1.58,2.37,3.12-2.29,5.77,3.32,11.91,9.72,9.91.7-.21,1.48-.07,2.06.38,3.3,2.54,8.01,4.22,13.19,4.75Zm54.67-24.01l-10.04-9.66c-.82-.79-.94-2.06-.28-2.99,3.53-4.96,6.03-10.41,7.45-16.2.25-1.03,1.17-1.75,2.23-1.75h14.57c.87-5.49.98-11.26.32-16.84h-14.37c-1.1,0-2.05-.78-2.26-1.87-1.28-6.65-3.95-12.87-7.94-18.47-.66-.93-.54-2.2.28-2.99l10.04-9.66c-3.74-4.48-7.99-8.4-12.69-11.69l-10.29,9.92c-.75.72-1.88.85-2.77.32-5.3-3.15-11.06-5.28-17.13-6.33-1.1-.19-1.91-1.15-1.91-2.27v-13.74c-1.71-.19-3.48-.29-5.28-.34v26.57c49.13,4.18,49.17,71.34,0,75.54v26.57c1.8-.05,3.57-.15,5.28-.34v-13.74c0-1.12.81-2.08,1.91-2.27,6.06-1.05,11.83-3.18,17.13-6.33.89-.53,2.02-.4,2.77.32l10.29,9.92c4.7-3.29,8.95-7.21,12.69-11.69Zm-27.29-79.75c-4.99-2.96-10.41-4.97-16.11-5.96-2.99-.45-3.76,3.96-.79,4.53,6.39.92,10.23,3.41,15.73,5.71,2.24.08,3.19-3.18,1.18-4.28Zm18.71.67c2.09,2.15,5.39-1.01,3.32-3.19-1.75-1.82-3.62-3.54-5.56-5.13-.9-.74-2.21-.68-3.05.13l-11.21,10.81c-2.15,2.1,1.02,5.39,3.19,3.31,0,0,9.71-9.36,9.71-9.36,1.24,1.09,2.45,2.24,3.59,3.44Zm1.17,32.94c1.42.02,2.55-1.34,2.26-2.73-1.21-6.32-3.75-12.22-7.53-17.52-.73-1.03-2.17-1.27-3.21-.54-1.03.74-1.27,2.17-.54,3.21,3.4,4.76,5.67,10.05,6.76,15.71.21,1.1,1.17,1.87,2.26,1.87Zm7.29,5.84h7.38c0,.85-.02,1.7-.05,2.55h-13.72c-1.06,0-1.98.73-2.23,1.75l-1.35,5.51c-.7,2.91,3.73,4.02,4.47,1.09,0,0,.92-3.76.92-3.76h14.07c1.2,0,2.19-.92,2.29-2.11.2-2.45.25-4.96.15-7.43-.05-1.23-1.07-2.2-2.3-2.2h-9.63c-3.02.05-3.03,4.55,0,4.6Zm-15.15,35.69c2.18,2.08,5.35-1.22,3.19-3.32,0,0-2.93-2.82-2.93-2.82l2.34-3.28c1.73-2.46-1.99-5.11-3.75-2.67-5.34,7.56-5.43,5.68,1.16,12.09Zm-2.47,1.32c-2.17-2.07-5.35,1.21-3.19,3.31,0,0,7.06,6.81,7.06,6.81.84.81,2.15.86,3.05.13,1.94-1.58,3.81-3.31,5.56-5.13.88-.92.85-2.37-.07-3.25-2.77-2.25-4.77,2.19-6.85,3.5l-5.57-5.37Zm-11.9-1.35c-4.51,2.68-9.41,4.49-14.56,5.38-2.73.46-2.36,4.59.39,4.57,5.85-.87,11.41-3,16.51-5.99,1.09-.65,1.45-2.06.8-3.15-.65-1.09-2.06-1.45-3.15-.8Zm2.77,14.82c-2.85,1.33-5.82,2.44-8.84,3.29-.99.28-1.68,1.19-1.68,2.21v10.12c.05,3.02,4.55,3.03,4.6,0,0,0,0-8.41,0-8.41,2.68-.84,5.32-1.86,7.86-3.06,1.15-.54,1.65-1.91,1.11-3.06-.54-1.15-1.91-1.64-3.06-1.11Zm42.73-33.64h-10.94c-.97,0-1.84.61-2.17,1.53-1.03,2.89-2.32,5.71-3.84,8.4-.89,1.48.29,3.47,2,3.43.8,0,1.58-.42,2-1.17,1.38-2.44,2.58-4.98,3.6-7.59h9.34c3.02-.05,3.02-4.55,0-4.6Zm-12.45-33.43c0,1.27,1.03,2.3,2.3,2.3h10.54c1.27,0,2.3-1.03,2.3-2.3s-1.03-2.3-2.3-2.3h-10.54c-1.27,0-2.3,1.03-2.3,2.3Zm-4.15-9.55c.88.92,2.34.94,3.25.06l7.42-7.14c.92-.88.94-2.34.06-3.25-.88-.92-2.34-.94-3.25-.06l-7.42,7.14c-.92.88-.94,2.34-.06,3.25Zm-34.97-27.47c3.01.85,5.99,1.96,8.84,3.29.86.4,1.88.24,2.57-.43l7.71-7.43c2.16-2.09-1.02-5.39-3.19-3.31,0,0-6.58,6.34-6.58,6.34-2.63-1.15-5.34-2.12-8.09-2.9-1.22-.34-2.49.37-2.84,1.59-.34,1.22.37,2.49,1.59,2.84Z"/>
    </g>
  </g>
</svg>