<?xml version="1.0" encoding="UTF-8"?>
<svg id="Layer_2" data-name="Layer 2" xmlns="http://www.w3.org/2000/svg" viewBox="0 0 215.4 215.4">
  <defs>
    <style>
      .cls-1 {
        fill: #6e56a4;
      }

      .cls-1, .cls-2 {
        stroke-width: 0px;
      }

      .cls-2 {
        fill: #fff;
        fill-rule: evenodd;
      }
    </style>
  </defs>
  <g id="Layer_1-2" data-name="Layer 1">
    <g>
      <rect class="cls-1" width="215.4" height="215.4" rx="41.99" ry="41.99"/>
      <g>
        <path class="cls-2" d="m63.32,55.08l96.14.61c-.17,14-.04,28.08-.04,42.09,0,23.4,2.89,18.61-9.59,31.11-12.6,12.63-8.35,10.4-32.32,10.14-11.45-.12-9.51-.42-15.49,5.7-3.51,3.6-6.35,7.19-10.48,9.73v-15.4s-28.07,0-28.07,0l-.15-83.98h0Zm11.63,104.1l1.12,6.93c-.01,2.71-.05,5.42-.13,8.13l19.05.05c5.75-2.38,9.07-8.17,13.59-12.39,5.69-5.31,14.23-2.01,23.15-2.85,6.43-.6,22.22-19.11,27.46-24.32,15.95-15.88,12.31-9.45,12.31-39.3,0-12.83,1.51-41.37-.45-52.34l-118.74-.13c-9.99,15.63-8.79,35.22-8.79,53.64,0,20.69-.24,41.52.04,62.19l31.39.38h0Z"/>
        <polygon class="cls-2" points="95.86 117.1 106.94 117.04 106.94 82.23 95.88 82.27 95.86 117.1 95.86 117.1"/>
        <polygon class="cls-2" points="139.27 81.93 128.98 82.06 128.3 117.38 139.02 117.25 139.27 81.93 139.27 81.93"/>
      </g>
    </g>
  </g>
</svg>