<?xml version="1.0" encoding="UTF-8"?>
<svg id="Layer_2" data-name="Layer 2" xmlns="http://www.w3.org/2000/svg" viewBox="0 0 215.4 215.4">
  <defs>
    <style>
      .cls-1 {
        fill: #fff;
      }

      .cls-1, .cls-2 {
        stroke-width: 0px;
      }

      .cls-2 {
        fill: #bdd231;
      }
    </style>
  </defs>
  <g id="Layer_1-2" data-name="Layer 1">
    <g>
      <rect class="cls-2" width="215.4" height="215.4" rx="41.99" ry="41.99"/>
      <g>
        <path class="cls-1" d="m104.95,58.81h33.54c1.23,0,2.24-1,2.24-2.24s-1-2.24-2.24-2.24h-33.54c-2.93.05-2.95,4.42,0,4.47Z"/>
        <path class="cls-1" d="m71.41,69.99h6.71c2.94-.05,2.94-4.42,0-4.47,0,0-6.71,0-6.71,0-2.94.05-2.94,4.42,0,4.47Z"/>
        <path class="cls-1" d="m110.32,65.52c-2.94.05-2.94,4.42,0,4.47,0,0,10.73,0,10.73,0,2.94-.05,2.94-4.42,0-4.47,0,0-10.73,0-10.73,0Z"/>
        <path class="cls-1" d="m88.85,69.99h10.73c2.94-.05,2.94-4.42,0-4.47,0,0-10.73,0-10.73,0-2.94.05-2.94,4.42,0,4.47Z"/>
        <path class="cls-1" d="m138.49,65.52h-6.71c-2.94.05-2.94,4.42,0,4.47,0,0,6.71,0,6.71,0,2.94-.05,2.94-4.42,0-4.47Z"/>
        <path class="cls-1" d="m71.41,81.17h67.08c2.92-.04,2.96-4.42,0-4.47,0,0-67.08,0-67.08,0-2.92.04-2.96,4.42,0,4.47Z"/>
        <path class="cls-1" d="m71.41,92.35h67.08c2.92-.04,2.96-4.42,0-4.47,0,0-67.08,0-67.08,0-2.92.04-2.96,4.42,0,4.47Z"/>
        <path class="cls-1" d="m71.41,103.53h6.71c2.94-.05,2.94-4.42,0-4.47,0,0-6.71,0-6.71,0-2.94.05-2.94,4.42,0,4.47Z"/>
        <path class="cls-1" d="m88.85,99.06c-2.94.05-2.94,4.42,0,4.47,0,0,10.73,0,10.73,0,2.94-.05,2.94-4.42,0-4.47,0,0-10.73,0-10.73,0Z"/>
        <path class="cls-1" d="m110.32,99.06c-2.94.05-2.94,4.42,0,4.47,0,0,10.73,0,10.73,0,2.94-.05,2.94-4.42,0-4.47,0,0-10.73,0-10.73,0Z"/>
        <path class="cls-1" d="m138.49,99.06h-6.71c-2.94.05-2.94,4.42,0,4.47,0,0,6.71,0,6.71,0,2.94-.05,2.94-4.42,0-4.47Z"/>
        <path class="cls-1" d="m71.41,114.71h67.08c2.92-.04,2.96-4.42,0-4.47,0,0-67.08,0-67.08,0-2.92.04-2.96,4.42,0,4.47Z"/>
        <path class="cls-1" d="m108.9,121.42h-8.25c-1.23,0-2.24,1-2.24,2.24s1,2.24,2.24,2.24h8.25c2.94-.05,2.94-4.42,0-4.47Z"/>
        <path class="cls-1" d="m125.41,121.42h-8.25c-1.23,0-2.24,1-2.24,2.24s1,2.24,2.24,2.24h8.25c2.94-.05,2.94-4.42,0-4.47Z"/>
        <path class="cls-1" d="m92.39,121.42h-8.25c-1.23,0-2.24,1-2.24,2.24s1,2.24,2.24,2.24h8.25c2.94-.05,2.94-4.42,0-4.47Z"/>
        <path class="cls-1" d="m75.89,121.42h-4.47c-1.23,0-2.24,1-2.24,2.24s1,2.24,2.24,2.24h4.47c2.94-.05,2.94-4.42,0-4.47Z"/>
        <path class="cls-1" d="m122.18,148.91c-.79-.78-2.03-.88-2.92-.21l-7.15,5.37-5.37-7.16c-.41-.55-1.06-.88-1.75-.89-.72-.02-1.35.3-1.78.84l-7.38,9.23-7.18-7.18c-.85-.85-2.23-.88-3.11-.05l-4.76,4.47c-2.12,2.01.92,5.25,3.06,3.26,0,0,3.18-2.99,3.18-2.99l7.41,7.41c.42.42.99.66,1.58.66.68,0,1.32-.31,1.75-.84l7.14-8.93,4.98,6.63c.74.99,2.14,1.19,3.13.45l7.39-5.54,3.1,3.1c2.08,2.06,5.22-1.09,3.16-3.16,0,0-4.47-4.47-4.47-4.47Z"/>
        <path class="cls-1" d="m175.81,90.39c-.2-.56-.61-1.02-1.14-1.28l-6.04-2.91,3.89-8.05c.54-1.11.07-2.45-1.04-2.99l-6.04-2.92c-.53-.26-1.15-.29-1.71-.1-.56.2-1.02.61-1.28,1.14l-3.88,8.05c-1.07-.54-2.48-.05-2.98,1.04l-1.43,2.96v-42.17c0-1.23-1-2.24-2.24-2.24H58c-1.23,0-2.24,1-2.24,2.24v127.45c0,1.23,1,2.24,2.24,2.24h93.91c1.23,0,2.24-1,2.24-2.24v-49.25l14.55-30.17,2.01.97-7.59,15.73c-1.25,2.63,2.73,4.58,4.03,1.94,0,0,8.56-17.75,8.56-17.75.26-.53.29-1.15.1-1.71Zm-10.31-13.15l2.01.97-2.91,6.04-2.01-.97,2.91-6.04Zm-6.87,9.1c.06.03,6,2.87,6.04,2.91l-18.46,38.27-6.06-2.92c.03-.07,18.43-38.17,18.47-38.26Zm-25.45,54.75l4.48,2.16-5.48,5.64,1-7.8Zm1.15-4.41l3.89-8.05,6.06,2.92-3.89,8.06-6.06-2.93Zm15.35,31.7H60.23V45.4h89.44v49.2l-12.95,26.83h-3.05c-2.94.05-2.94,4.42,0,4.47,0,0,.9,0,.9,0l-3.24,6.71h-59.91c-1.23,0-2.24,1-2.24,2.24s1,2.24,2.24,2.24h57.83c-.04.18-.13.36-.14.55l-1.78,13.84c-.31,1.97,1.9,2.59,3.26,3.27.86.42,1.9.24,2.57-.46l9.73-10.01s.03-.03.04-.04l.09-.09c.12-.21.31-.36.42-.58l6.24-12.93v37.74Z"/>
      </g>
    </g>
  </g>
</svg>