<?xml version="1.0" encoding="UTF-8"?>
<svg id="Layer_2" data-name="Layer 2" xmlns="http://www.w3.org/2000/svg" viewBox="0 0 215.4 215.4">
  <defs>
    <style>
      .cls-1 {
        fill: #ba54a0;
      }

      .cls-1, .cls-2 {
        stroke-width: 0px;
      }

      .cls-2 {
        fill: #fff;
        fill-rule: evenodd;
      }
    </style>
  </defs>
  <g id="Layer_1-2" data-name="Layer 1">
    <g>
      <rect class="cls-1" width="215.4" height="215.4" rx="41.99" ry="41.99"/>
      <g>
        <path class="cls-2" d="m57.63,84.77c1.64,1.16,6.58,4.59,14.83,10.31,8.25,5.71,14.56,10.11,18.95,13.2.48.34,1.51,1.07,3.07,2.21,1.57,1.13,2.87,2.05,3.91,2.75,1.04.7,2.29,1.48,3.76,2.35,1.47.87,2.86,1.52,4.16,1.95,1.3.44,2.51.65,3.62.65h.15c1.11,0,2.31-.22,3.62-.65,1.3-.43,2.69-1.08,4.16-1.95,1.47-.87,2.72-1.65,3.76-2.35,1.04-.7,2.34-1.61,3.91-2.75,1.57-1.13,2.59-1.87,3.07-2.21,4.44-3.08,15.72-10.92,33.85-23.51,3.52-2.46,6.46-5.42,8.82-8.9,2.36-3.47,3.54-7.11,3.54-10.92,0-3.18-1.15-5.91-3.44-8.17-2.29-2.27-5-3.4-8.14-3.4H56.76c-3.71,0-6.57,1.25-8.57,3.76-2,2.51-3,5.64-3,9.4,0,3.04,1.33,6.33,3.98,9.87,2.65,3.54,5.47,6.33,8.46,8.35"/>
        <path class="cls-2" d="m167.57,92.51c-15.81,10.7-27.82,19.02-36.02,24.95-2.75,2.02-4.98,3.6-6.69,4.74-1.71,1.13-3.99,2.29-6.84,3.47-2.84,1.18-5.5,1.77-7.95,1.77h-.15c-2.46,0-5.11-.59-7.96-1.77-2.84-1.18-5.12-2.34-6.83-3.47-1.71-1.13-3.94-2.71-6.69-4.74-6.51-4.77-18.49-13.09-35.95-24.95-2.75-1.83-5.18-3.93-7.31-6.29v57.43c0,3.18,1.13,5.91,3.4,8.17,2.27,2.27,4.99,3.4,8.17,3.4h106.46c3.18,0,5.91-1.13,8.17-3.4,2.27-2.27,3.4-4.99,3.4-8.17v-57.43c-2.07,2.31-4.48,4.41-7.23,6.29"/>
      </g>
    </g>
  </g>
</svg>