<?xml version="1.0" encoding="UTF-8"?>
<svg id="Layer_2" data-name="Layer 2" xmlns="http://www.w3.org/2000/svg" viewBox="0 0 215.4 215.4">
  <defs>
    <style>
      .cls-1 {
        fill: #febf10;
      }

      .cls-1, .cls-2 {
        stroke-width: 0px;
      }

      .cls-2 {
        fill: #fff;
      }
    </style>
  </defs>
  <g id="Layer_1-2" data-name="Layer 1">
    <g>
      <rect class="cls-1" width="215.4" height="215.4" rx="41.99" ry="41.99"/>
      <path class="cls-2" d="m90.58,128.34h-7.74c-.42,0-.72-.19-.89-.57l-12.12-25.83c-.15-.24-.39-.29-.38.06l.06,25.57c0,.21-.08.39-.22.54-.15.15-.33.22-.54.22-.09-.1-8.2.24-7.9-.22-.15-.15-.22-.33-.22-.54v-42.89c-.01-.41.35-.77.76-.76h7.68c.42,0,.72.19.89.57l12.12,25.82c.15.24.39.29.38-.06v-25.57c-.01-.41.35-.77.76-.76h7.36c.41-.01.77.35.76.76v42.89c0,.21-.08.39-.22.54-.15.15-.33.22-.54.22Zm27.63-18.75c.44.18.14-6.51.22-6.69,0-.21-.07-.39-.22-.54-.15-.15-.33-.22-.54-.22h-10.53c-.21,0-.32-.1-.32-.32v-9.9c0-.21.11-.32.32-.32h16.94c.21,0,.39-.07.54-.22.15-.15.22-.33.22-.54v-6.15c.01-.41-.35-.77-.76-.76h-25.44c-.41-.01-.77.35-.76.76v42.89c-.01.41.35.77.76.76h7.42c.21,0,.39-.07.54-.22.15-.15.22-.33.22-.54v-17.45c0-.21.11-.32.32-.32h10.53c.21,0,.39-.07.54-.22Zm28.17,18.53c.15-.15.22-.33.22-.54v-35.6c0-.21.11-.32.32-.32h9.64c.41,0,.77-.35.76-.76v-6.22c.01-.41-.35-.77-.76-.76h-28.55c-.41-.01-.77.35-.76.76v6.22c0,.41.35.77.76.76h9.33c.21,0,.32.11.32.32v35.6c0,.21.07.39.22.54.15.15.33.22.54.22h7.42c.21,0,.39-.07.54-.22ZM68.59,37.69c10.6.14,12.41,15.1,2.27,17.81v20.72c0,1.25-1.01,2.27-2.27,2.27s-2.27-1.01-2.27-2.27v-20.72c-10.15-2.71-8.33-17.67,2.27-17.81Zm0,13.6c5.98-.16,5.98-8.91,0-9.06-5.98.16-5.98,8.91,0,9.06Zm27.19-4.53c10.6.14,12.41,15.1,2.27,17.81v11.65c0,1.25-1.01,2.27-2.27,2.27s-2.27-1.01-2.27-2.27v-11.65c-10.15-2.71-8.33-17.67,2.27-17.81Zm0,13.6c5.98-.16,5.98-8.91,0-9.06-5.98.16-5.98,8.91,0,9.06Zm27.19-6.8c10.6.14,12.42,15.1,2.27,17.81v4.85c0,1.25-1.01,2.27-2.27,2.27s-2.27-1.01-2.27-2.27v-4.85c-10.15-2.71-8.33-17.67,2.27-17.81Zm0,13.6c5.98-.16,5.98-8.91,0-9.06-5.98.16-5.98,8.91,0,9.06Zm-74.78,52.12c-11.98-.38-11.98-17.75,0-18.13,11.98.38,11.98,17.75,0,18.13Zm0-13.6c-5.98.16-5.98,8.91,0,9.06,5.98-.16,5.98-8.91,0-9.06Zm126.91,4.53c-.14,10.6-15.09,12.42-17.81,2.27h-4.85c-1.25,0-2.27-1.01-2.27-2.27s1.01-2.27,2.27-2.27h4.85c1.01-3.9,4.53-6.8,8.74-6.8,5,0,9.06,4.07,9.06,9.06Zm-9.06-4.53c-5.98.16-5.98,8.91,0,9.06,5.98-.16,5.98-8.91,0-9.06Zm-13.6-61.19c10.6.14,12.41,15.1,2.27,17.81v13.92c0,1.25-1.01,2.27-2.27,2.27s-2.27-1.01-2.27-2.27v-13.92c-10.15-2.71-8.33-17.67,2.27-17.81Zm0,13.6c5.98-.16,5.98-8.91,0-9.06-5.98.16-5.98,8.91,0,9.06Zm0,108.78c-10.6-.14-12.41-15.1-2.27-17.81v-13.92c0-1.25,1.01-2.27,2.27-2.27s2.27,1.01,2.27,2.27v13.92c10.15,2.71,8.33,17.67-2.27,17.81Zm0-13.6c-5.98.16-5.98,8.91,0,9.06,5.98-.16,5.98-8.91,0-9.06Zm-27.19,20.4c-10.6-.14-12.41-15.1-2.27-17.81v-20.72c0-1.25,1.01-2.27,2.27-2.27s2.27,1.01,2.27,2.27v20.72c10.15,2.71,8.33,17.67-2.27,17.81Zm0-13.6c-5.98.16-5.98,8.91,0,9.06,5.98-.16,5.98-8.91,0-9.06Zm-27.19-2.27c-10.6-.14-12.41-15.1-2.27-17.81v-4.85c0-1.25,1.01-2.27,2.27-2.27s2.27,1.01,2.27,2.27v4.85c10.15,2.71,8.33,17.67-2.27,17.81Zm0-13.6c-5.98.16-5.98,8.91,0,9.06,5.98-.16,5.98-8.91,0-9.06Zm-29.46,24.93c-10.6-.14-12.41-15.1-2.27-17.81v-16.19c0-1.25,1.01-2.27,2.27-2.27s2.27,1.01,2.27,2.27v16.19c10.15,2.71,8.33,17.67-2.27,17.81Zm0-13.6c-5.98.16-5.98,8.91,0,9.06,5.98-.16,5.98-8.91,0-9.06Z"/>
    </g>
  </g>
</svg>