<?xml version="1.0" encoding="UTF-8"?>
<svg id="Layer_2" data-name="Layer 2" xmlns="http://www.w3.org/2000/svg" viewBox="0 0 215.4 215.4">
  <defs>
    <style>
      .cls-1 {
        fill: #fff;
      }

      .cls-1, .cls-2 {
        stroke-width: 0px;
      }

      .cls-2 {
        fill: #9f8170;
      }
    </style>
  </defs>
  <g id="Layer_1-2" data-name="Layer 1">
    <g>
      <rect class="cls-2" width="215.4" height="215.4" rx="41.99" ry="41.99"/>
      <g>
        <path class="cls-1" d="m67.85,66.04c2.21-.15,4.74-3.04,2.94-5.09-.92-1.09-2.55-1.22-3.63-.3-2.57,1.46-2.59,5.12.69,5.39Z"/>
        <path class="cls-1" d="m100.95,51.03c2.11-.18,5.29-.13,5.1-3.07-.12-1.42-1.34-2.5-2.79-2.35-2.11.11-5.16.29-4.86,3.16.16,1.3,1.27,2.26,2.56,2.26Z"/>
        <path class="cls-1" d="m113.45,50.71c.92.06,1.82.19,2.73.26,3.18-.03,3.48-4.73.3-5.14-2.09-.32-5.14-.76-5.41,2.11-.11,1.42.95,2.66,2.37,2.77Z"/>
        <path class="cls-1" d="m88.59,53.92c2.12-.4,5.71-1.18,4.89-4.1-.89-2.75-3.76-1.67-5.74-.91-2.72.91-1.98,5.06.85,5.02Z"/>
        <path class="cls-1" d="m136.69,57.47c1.78,1.04,4.17,2.68,5.65.28,1.42-2.47-1.34-3.93-3.23-4.83-3.01-1.55-5.39,2.9-2.43,4.55Z"/>
        <path class="cls-1" d="m125.42,52.88c1.06.25,2.07.79,3.15.87,2.84.05,3.57-4.14.82-5.02-1.98-.74-4.87-1.79-5.72.96-.4,1.37.39,2.8,1.75,3.2Z"/>
        <path class="cls-1" d="m77.09,59.28c1.28-.03,2.3-1.07,3.44-1.57,1.25-.68,1.72-2.24,1.04-3.49-1.43-2.51-4.02-.87-5.8.28-2.24,1.24-1.19,4.89,1.33,4.79Z"/>
        <path class="cls-1" d="m147.75,65.1c2.55,2.2,5.92-1.67,3.38-3.89,0,0-1.01-.86-1.01-.86-2.59-2.16-5.89,1.76-3.32,3.94,0,0,.95.81.95.81Z"/>
        <path class="cls-1" d="m170.67,112.36c-2.21-.1-2.9,1.7-2.9,3.6-.14,1.42.89,2.68,2.31,2.82,1.39.15,2.69-.89,2.82-2.31l.12-1.33c.12-1.42-.94-2.67-2.36-2.78Z"/>
        <path class="cls-1" d="m97.59,168.01c-.83-.16-1.65-.34-2.46-.53-3.31-.72-4.47,4.18-1.19,5.02,2.05.54,5.07,1.41,5.7-1.47.27-1.4-.65-2.75-2.05-3.02Z"/>
        <path class="cls-1" d="m164.71,136.44c-1.26-.67-2.82-.19-3.48,1.07-1.04,1.8-2.74,4.24-.31,5.73,2.55,1.42,3.92-1.4,4.86-3.32.67-1.26.19-2.82-1.07-3.48Z"/>
        <path class="cls-1" d="m145.13,156.65c-.66.51-1.34,1.02-2.03,1.5-2.05,1.35-.91,4.77,1.5,4.68,1.46-.02,2.53-1.35,3.69-2.11,1.13-.87,1.33-2.49.46-3.62-.87-1.13-2.49-1.33-3.62-.46Z"/>
        <path class="cls-1" d="m122.59,167.46c-.82.19-1.63.37-2.46.53-3.03.56-2.57,5.14.48,5.11,2.17-.26,5.73-.73,5.08-3.73-.33-1.39-1.74-2.23-3.1-1.91Z"/>
        <path class="cls-1" d="m154.19,147.94c-1.39,1.54-3.57,3.57-1.51,5.53,2.15,1.93,4.17-.56,5.46-2.22,2.16-2.59-1.76-5.89-3.95-3.32Z"/>
        <path class="cls-1" d="m134.43,163.26c-.76.36-1.52.71-2.29,1.04-2.56,1.05-1.71,5,1.02,4.95,2.21-.43,6.03-1.88,4.71-4.78-.62-1.28-2.15-1.83-3.44-1.21Z"/>
        <path class="cls-1" d="m169.07,124.05c-1.37-.38-2.79.42-3.18,1.79-.63,1.98-1.78,4.72.91,5.66,1.32.45,2.81-.28,3.26-1.64.72-2,1.82-4.96-.99-5.81Z"/>
        <path class="cls-1" d="m110.18,169.05c-.77.02-1.8.02-2.58,0-3.36.13-3.51,4.98-.11,5.16,2.13.1,5.26.29,5.26-2.64-.03-1.4-1.18-2.52-2.58-2.52Z"/>
        <path class="cls-1" d="m63.49,147.99c-2.18-2.57-6.11.74-3.94,3.33,1.29,1.66,3.31,4.13,5.45,2.21,2.06-1.97-.11-3.99-1.51-5.54Z"/>
        <path class="cls-1" d="m72.56,156.69c-1.14-.87-2.75-.66-3.62.47-.87,1.13-.66,2.75.47,3.62,1.16.76,2.23,2.08,3.69,2.1,2.41.09,3.55-3.33,1.5-4.68-.69-.49-1.36-.99-2.03-1.5Z"/>
        <path class="cls-1" d="m52.51,128.32c-.6-2.02-1.12-4.89-3.92-4.19-1.37.39-2.17,1.81-1.78,3.18.53,1.77.91,4.44,3.25,4.39,1.71.03,3.02-1.75,2.45-3.38Z"/>
        <path class="cls-1" d="m56.44,137.57c-1.65-2.97-6.09-.58-4.55,2.43.94,1.91,2.32,4.72,4.86,3.3,2.43-1.49.73-3.93-.32-5.73Z"/>
        <path class="cls-1" d="m85.57,164.33c-1.88-.89-4.45-2.38-5.73.17-.62,1.28-.08,2.82,1.21,3.44,1.14.46,2.26,1.26,3.51,1.34,2.72.05,3.58-3.9,1.01-4.95Z"/>
        <path class="cls-1" d="m47.58,118.78c3.48-.32,2.91-6.75-.6-6.42-3.59.25-2.95,6.85.6,6.42Z"/>
        <path class="cls-1" d="m185.7,90.27c-.82-1.16-2.43-1.44-3.59-.62l-24.22,17.06c-2.79-4.91-11.22-18.81-14.26-23.85,2.91-1.94,39.9-26.63,41.39-27.63,1.19-.79,1.51-2.39.71-3.58-.79-1.18-2.39-1.51-3.58-.71l-57.2,38.17-11.65-3.24c-1.09-.38-2.21.36-3.11.9-1.42-.65-4.09-2.94-5.59-2.34,0,0-11.67,3.25-11.67,3.25l-57.49-36.76c-1.2-.77-2.79-.42-3.56.78-.77,1.2-.42,2.79.78,3.56l1.39.89,39.76,25.43-14.08,24.18-24.25-16.14c-.44-.29-.94-.39-1.43-.38-2.46-.13-3.55,3.37-1.43,4.68,0,0,26.66,17.74,26.67,17.75,0,0,14.72,9.79,14.72,9.79l1.77,1.77c-1.97,4.68,2.07,10.44,7.2,9.94.63,3.47,4.29,6.3,7.82,6,.56,3.54,4.01,6.26,7.53,6.07.65,5.99,8.88,8.38,12.66,3.75l5.34,3.1c4.58,2.82,11.07-.73,11.07-6.12,3.77-.09,7.05-3.29,7.09-7.06,3.76-.06,7.08-3.31,7.13-7.07,5.64-.01,9.1-7,5.83-11.46l37.61-26.51c1.16-.82,1.44-2.43.62-3.59Zm-42.41,35.32c-.61,1.03-2.05,1.43-3.07.83l-9.2-5.36c-2.93-1.6-5.51,2.7-2.6,4.45,0,0,1.23.72,1.23.72.25.18,6.14,3.5,6.16,3.69,1.93,1.83-.46,4.82-2.7,3.56-.95-.55-2.67-1.54-3.59-2.09h0c-.91-.38-7.04-4.51-7.99-4.26-2.67-.05-3.55,3.62-1.21,4.86,0,0,7.8,4.56,7.8,4.56,1.16.54,1.66,2.08.98,3.18-.6,1.03-2.01,1.45-3.09.82l-4.87-2.84c-.08-.04-.15-.08-.23-.12l-3.79-2.22c-1.31-.92-2.76-1.24-3.97,0-1.41-1.65-3.68-2.55-5.78-2.39-.5-3.03-3.08-5.55-6.2-5.9.71-5.08-4.86-9.34-9.59-7.61-1.76-4.63-8.17-6.04-11.45-2.55l7.81-13.41c-.45,5.58,6.15,9.63,10.96,6.71,0,0,9.42-5.44,9.42-5.44,3.66,1.88,27.21,13.99,31.43,16.15l2.75,1.61c1.09.63,1.45,1.98.82,3.07Zm-24.37,22.02l-5.17-3.01c.82-1.25,1.41-2.85,1.3-4.47,1.55.91,4.6,2.67,6.13,3.58,2.55,1.55.31,5.24-2.26,3.89Zm-29.81-14.04c-1-.54-1.45-1.97-.9-3.03l3.54-4.98c1.49-2.69,5.37-.82,4.05,2.02,0,0-3.45,5.35-3.45,5.35-.64,1.14-2.19,1.44-3.25.64Zm-7.82-6.01c-.8-.64-1.06-1.71-.65-2.63l2.84-4.1c1.19-1.73,3.93-.12,3.45,1.86,0,0-.45,1.37-.45,1.37l-2.38,3.35c-.96.68-1.5,1.05-2.82.15Zm23.37-37.59l-13.1,7.55c-.1.06-.18.13-.27.19l2.94-5.05c.51-.14,10.68-2.97,10.72-2.98l.1.06-.4.23Zm-12.11,34.67c-.07.04-.14.09-.22.13.06-.03.13-.1.22-.13Zm4.1,14.86c-.85-.68-.99-1.85-.52-2.8h.01s2.53-4,2.53-4c.86-.75,2.27-.73,3.04.11h0c1.07,1.09.64,2.47-.28,3.81h0s0,0,0,0c-.2.31-1.38,2.45-1.62,2.71-.72.93-2.47,1.01-3.16.17Zm6.75,4.6c-.13-.87,2.05-3.96,2.39-4.74,1.45-2.65,5.07-.62,3.9,2.01-.44.73-1.85,3.16-2.27,3.84-1.14,1.99-3.99,1.04-4.02-1.11Zm46.3-41.23c.48.88,3.42,5.85,3.98,6.83l-10.4,7.33c-.45-.22-.41-.36-.66-.74l-13.74-23.56,10.48-6.99,10.35,17.14Zm-25.98-8.75l10.65,18.25-21.63-11.12c.51-2.11-2-3.92-3.87-2.75,0,0-12.51,7.22-12.51,7.22-1.68.98-3.72-.61-3.22-2.41.15-.56.51-1.03,1-1.32l18.84-10.86,10.74,2.99Zm-45.53-9.76l10.87,6.95-14.25,24.46-10.75-7.15,14.13-24.26Z"/>
      </g>
    </g>
  </g>
</svg>