<?xml version="1.0" encoding="UTF-8"?>
<svg id="Layer_2" data-name="Layer 2" xmlns="http://www.w3.org/2000/svg" viewBox="0 0 215.4 215.4">
  <defs>
    <style>
      .cls-1 {
        fill: #fff;
        fill-rule: evenodd;
      }

      .cls-1, .cls-2 {
        stroke-width: 0px;
      }

      .cls-2 {
        fill: #49ade2;
      }
    </style>
  </defs>
  <g id="Layer_1-2" data-name="Layer 1">
    <g>
      <rect class="cls-2" width="215.4" height="215.4" rx="41.99" ry="41.99"/>
      <path class="cls-1" d="m139.73,75.85c1.06,1.62.73,2.62-.31,3.86-.85,1.01-1.72,1.79-2.58,2.78-3.48,4.01-8.04,7.45-10.9,10.53-1.57,1.69-6.71,6.12-8.26,7.82-.85.94-1.91,1.63-2.81,2.55-3.72,3.8-7.14,6.89-11.03,10.42l-5.42,5.47c-7.45,8.86-.49,11.96,8.06,17.64l25.66,17.23c2.31,1.56,4.15,3.09,6.4,4.49,14.58,9,19.13,4.09,22.14-11.86,2.3-12.15,4.31-24.4,6.41-36.63,1.63-9.47,8.15-47.86,7.78-56.7-.35-8.6-6.96-7.66-13.43-6.01-5.41,1.38-10.79,3.66-15.7,5.73-5.06,2.14-10.23,4.03-15.25,6.19-24.92,10.75-50.37,21.32-75.16,32.23-5.29,2.33-18.72,6.85-20.93,11.4-1.42,2.92,1.3,4.95,3.82,6.04,5.1,2.19,10.65,3.65,16.18,5.26,5.06,1.48,12.95,3.58,18.48,2.29,4.62-1.07,10.12-4.93,13.95-7.67l25.69-17.38c2.18-1.46,4.27-2.86,6.44-4.28l13.01-8.43c2.05-1.29,4.3-3.59,7.76-2.98h0Z"/>
    </g>
  </g>
</svg>