<?xml version="1.0" encoding="UTF-8"?>
<svg id="Layer_2" data-name="Layer 2" xmlns="http://www.w3.org/2000/svg" viewBox="0 0 215.4 215.4">
  <defs>
    <style>
      .cls-1 {
        fill: #f36f5f;
      }

      .cls-1, .cls-2 {
        stroke-width: 0px;
      }

      .cls-2 {
        fill: #fff;
      }
    </style>
  </defs>
  <g id="Layer_1-2" data-name="Layer 1">
    <g>
      <rect class="cls-1" width="215.4" height="215.4" rx="41.99" ry="41.99"/>
      <g>
        <path class="cls-2" d="m123.89,41.41c-.45-.78-1.29-1.26-2.19-1.26h-20.87c-1.4,0-2.53,1.13-2.53,2.53s1.13,2.53,2.53,2.53h11.51l-67.95,39.54c-1.21.7-1.62,2.25-.91,3.46.47.81,1.32,1.26,2.19,1.26.43,0,.87-.11,1.27-.34l67.82-39.47-5.68,9.84c-.7,1.21-.28,2.76.92,3.45.4.23.83.34,1.26.34.87,0,1.72-.46,2.19-1.27l10.44-18.07c.45-.78.45-1.75,0-2.53Z"/>
        <path class="cls-2" d="m77.42,157.8v-61.95h12.65v61.95h5.06v-64.48c0-1.4-1.13-2.53-2.53-2.53h-17.71c-1.4,0-2.53,1.13-2.53,2.53v64.48h5.06Z"/>
        <path class="cls-2" d="m48.32,157.8v-46.59h12.66v46.59h5.06v-49.12c0-1.4-1.13-2.53-2.53-2.53h-17.71c-1.4,0-2.53,1.13-2.53,2.53v49.12h5.06Z"/>
        <path class="cls-2" d="m111.62,157.8H36.3c-1.4,0-2.53,1.13-2.53,2.53s1.13,2.53,2.53,2.53h78.25c-1.1-1.6-2.08-3.29-2.93-5.06Z"/>
        <path class="cls-2" d="m119.17,113.52c1.56-1.56,3.25-2.98,5.06-4.26v-30.79c0-1.4-1.13-2.53-2.53-2.53h-17.71c-1.4,0-2.53,1.13-2.53,2.53v79.33h5.06v-76.8h12.65v32.52Z"/>
        <path class="cls-2" d="m146.66,173.53c-17.95,0-32.55-14.6-32.55-32.55s14.6-32.55,32.55-32.55,32.55,14.6,32.55,32.55-14.6,32.55-32.55,32.55Zm0-60.04c-15.16,0-27.49,12.33-27.49,27.49s12.33,27.49,27.49,27.49,27.49-12.33,27.49-27.49-12.33-27.49-27.49-27.49Z"/>
        <path class="cls-2" d="m157.73,140.42s.05-.05.07-.08c.5-.66.9-1.39,1.2-2.18.39-1.03.6-2.11.6-3.22,0-4.65-3.54-8.49-8.07-8.96v-3.1c0-1.4-1.13-2.53-2.53-2.53s-2.53,1.13-2.53,2.53v3.05h-3.94v-3.05c0-1.4-1.13-2.53-2.53-2.53s-2.53,1.13-2.53,2.53v3.05h-2.95c-1.4,0-2.53,1.13-2.53,2.53s1.13,2.53,2.53,2.53h2.95v20.87h-2.95c-1.4,0-2.53,1.13-2.53,2.53s1.13,2.53,2.53,2.53h2.95v3.05c0,1.4,1.13,2.53,2.53,2.53s2.53-1.13,2.53-2.53v-3.05h3.94v3.05c0,1.4,1.13,2.53,2.53,2.53s2.53-1.13,2.53-2.53v-3.05h1.19c4.97,0,9.01-4.04,9.01-9.01,0-3.12-1.59-5.87-4-7.49Zm-7.14-9.44c2.18,0,3.96,1.77,3.96,3.95,0,.49-.09.96-.26,1.41-.13.34-.31.66-.53.96-.75,1.01-1.91,1.59-3.17,1.59h-8.05v-7.91h8.05Zm2.13,20.87h-10.19v-7.91h10.19c2.18,0,3.95,1.77,3.95,3.96s-1.77,3.95-3.95,3.95Z"/>
      </g>
    </g>
  </g>
</svg>