<?xml version="1.0" encoding="UTF-8"?>
<svg id="Layer_2" data-name="Layer 2" xmlns="http://www.w3.org/2000/svg" viewBox="0 0 215.4 215.4">
  <defs>
    <style>
      .cls-1 {
        fill: #f47523;
        stroke-width: 0px;
      }

      .cls-2 {
        fill: #fff;
        fill-rule: evenodd;
        stroke: #fff;
        stroke-miterlimit: 10;
        stroke-width: 3px;
      }
    </style>
  </defs>
  <g id="Layer_1-2" data-name="Layer 1">
    <g>
      <rect class="cls-1" width="215.4" height="215.4" rx="41.99" ry="41.99"/>
      <path class="cls-2" d="m48.47,136.12h22.03v-18.64h-22.03v18.64h0Zm25.09,14.96h72.7V59.35h-72.7v91.73h0Zm74.23,3.05H54.11s0,0,0,0h-.11s0,0,0,0h-.11s-.11-.02-.11-.02h-.11s0-.01,0-.01h-.11s-.11-.03-.11-.03h-.11s0-.02,0-.02h-.11s-.11-.03-.11-.03h0l-.11-.02h0s-.1-.02-.1-.02h0l-.11-.02h0s-.1-.02-.1-.02h-.01l-.1-.03h0l-.11-.03h0l-.1-.03h0l-.11-.02h0l-.11-.03h0l-.1-.04h-.01l-.1-.03h0l-.1-.03h-.01s-.1-.04-.1-.04h0l-.1-.03h-.01s-.1-.04-.1-.04h0l-.1-.04h-.01s-.1-.04-.1-.04l-.09-.04h-.02l-.1-.04h-.01s-.09-.04-.09-.04h-.01s-.09-.05-.09-.05h-.01s-.09-.04-.09-.04h0s-.09-.05-.09-.05h-.01s-.09-.06-.09-.06h-.01l-.08-.05h-.01s-.08-.06-.08-.06h-.02l-.08-.05h-.01s-.08-.05-.08-.05h-.01s-.08-.05-.08-.05l-.1-.05h-.01s-.08-.06-.08-.06h-.01s-.08-.06-.08-.06h-.01s-.08-.06-.08-.06h-.01s-.08-.06-.08-.06h-.01s-.08-.06-.08-.06h0s-.08-.07-.08-.07l-.09-.06h-.01s-.07-.07-.07-.07h-.02s-.07-.06-.07-.06h-.01s-.08-.07-.08-.07h-.01s-.07-.07-.07-.07h-.01s-.08-.07-.08-.07h-.01s-.07-.07-.07-.07h-.01s-.07-.07-.07-.07h-.01s-.07-.07-.07-.07h-.02s-.07-.07-.07-.07h-.01s-.07-.07-.07-.07h-.02s-.06-.08-.06-.08h-.02s-.07-.07-.07-.07l-.02-.02-.06-.06v-.02s-.08-.06-.08-.06h-.02v-.02h0v-.02s-.07-.07-.07-.07h-.02s-.06-.07-.06-.07v-.02s-.08-.06-.08-.06v-.03s-.08-.06-.08-.06h-.01s-.06-.08-.06-.08v-.02s-.07-.07-.07-.07h-.01s-.06-.08-.06-.08h-.01s-.06-.08-.06-.08h0s-.06-.08-.06-.08v-.02s-.07-.07-.07-.07h-.01s-.06-.08-.06-.08v-.02s-.07-.07-.07-.07h-.01s-.06-.08-.06-.08v-.02s-.06-.07-.06-.07h-.01s-.05-.09-.05-.09h0s-.06-.1-.06-.1h0s-.06-.09-.06-.09h0s-.06-.09-.06-.09h0s-.05-.09-.05-.09v-.02s-.06-.08-.06-.08v-.02s-.06-.08-.06-.08h0s-.05-.1-.05-.1h0s-.05-.1-.05-.1h0s-.05-.1-.05-.1h0s-.05-.1-.05-.1h0s-.05-.1-.05-.1h-.01s-.04-.1-.04-.1h0s-.04-.1-.04-.1h-.01s-.04-.1-.04-.1h-.01s-.04-.1-.04-.1h0s-.04-.1-.04-.1h0s-.04-.1-.04-.1h0s-.04-.11-.04-.11h0s-.04-.1-.04-.1v-.02l-.04-.09h0s-.04-.1-.04-.1h0s-.04-.11-.04-.11h0s-.03-.11-.03-.11h0s-.04-.1-.04-.1h0s-.03-.11-.03-.11h0l-.03-.1h0s-.04-.11-.04-.11h0s-.03-.11-.03-.11h0s-.02-.11-.02-.11h0s-.03-.11-.03-.11h0s-.03-.11-.03-.11h0s-.03-.11-.03-.11h0s-.02-.11-.02-.11h0s-.02-.11-.02-.11h0l-.02-.11h0s-.03-.11-.03-.11h0s-.02-.11-.02-.11h0s-.02-.11-.02-.11h0s-.01-.11-.01-.11h0l-.02-.11h0v-.11s-.01,0-.01,0v-.11h-.01v-.11h0v-.11s-.01,0-.01,0v-.11h0v-.12h0v-.11h0v-79.75c0-2.53,1.03-4.81,2.68-6.48,1.66-1.66,3.95-2.68,6.48-2.68h110.66c2.52,0,4.81,1.03,6.47,2.68h0c1.66,1.67,2.69,3.96,2.69,6.48v79.51c0,2.53-1.03,4.82-2.69,6.48-1.66,1.66-3.95,2.68-6.47,2.68h-17.45Zm-55.26-72.76l43.99,21.68c.75.38,1.06,1.29.69,2.04-.15.32-.41.56-.71.7l-44.07,21.72c-.76.38-1.67.07-2.04-.69-.1-.22-.16-.45-.16-.67h0v-43.46c0-.84.68-1.52,1.53-1.52.28,0,.54.07.77.2h0Zm39.87,23.05l-39.11,19.28v-38.55l39.11,19.28h0Zm32.84-45.07h-15.92v12.01h22.03v-5.9c0-1.68-.68-3.21-1.79-4.32h0c-1.11-1.11-2.64-1.79-4.32-1.79h0Zm-15.92,15.06v18.53h22.03v-18.53h-22.03Zm0,21.58v18.44h22.03v-18.44h-22.03Zm0,21.49v18.64h22.03v-18.64h-22.03Zm0,21.7v11.9h15.92c1.68,0,3.2-.69,4.32-1.79,1.1-1.11,1.79-2.64,1.79-4.32v-5.79h-22.03Zm-78.81,0h-22.03v5.79c0,1.69.68,3.21,1.79,4.32h0c1.11,1.11,2.63,1.79,4.32,1.79h15.92v-11.9h0Zm0-79.83h-15.92c-1.68,0-3.21.69-4.32,1.79-1.1,1.11-1.79,2.64-1.79,4.32v5.9h22.03v-12.01h0Zm-22.03,15.06v18.53h22.03v-18.53h-22.03Zm0,21.58v18.44h22.03v-18.44h-22.03Z"/>
    </g>
  </g>
</svg>