<?xml version="1.0" encoding="UTF-8"?>
<svg id="Layer_2" data-name="Layer 2" xmlns="http://www.w3.org/2000/svg" viewBox="0 0 215.4 215.4">
  <defs>
    <style>
      .cls-1 {
        fill: #fff;
        fill-rule: evenodd;
      }

      .cls-1, .cls-2 {
        stroke-width: 0px;
      }

      .cls-2 {
        fill: #231f20;
      }
    </style>
  </defs>
  <g id="Layer_1-2" data-name="Layer 1">
    <g>
      <rect class="cls-2" width="215.4" height="215.4" rx="41.99" ry="41.99"/>
      <path class="cls-1" d="m134.49,163.67c-24.07-33.96-53.18-74.74-79.46-111.89l17.55-.06c6.62,8.92,76.82,108.38,79.55,111.96h-17.64Zm-45.2-47.51c-12.46,14.56-41.04,47.66-47.85,56.13h11.19c3.04-3.6,36.22-42.58,41.69-48.94.62.91,31.66,44.41,34.85,48.95h40.46c-15.17-21.36-48.66-68.34-53.1-74.8,3.19-3.74,41.29-48.45,46.27-54.28-1.25-.15-8.81-.06-11.07-.04-1.39,1.62-36.19,42.23-40.31,47.11-3.76-4.65-33-46.41-33.4-47.1h-40.52c14.02,20.88,34.49,48.83,51.81,72.98h0Z"/>
    </g>
  </g>
</svg>