<svg
	width="132"
	height="34"
	viewBox="0 0 156 41"
	fill="none"
	xmlns="http://www.w3.org/2000/svg"
	aria-label="ChakraUI Logo"
	className="css-w988qx"
>
	<g clip-path="url(#clip0_824_876)">
		<path
			d="M60.7169 18.3626C63.4581 18.3626 64.6805 20.1407 65.088 21.7335L68.9404 20.3259C68.1996 17.4365 65.5325 14.399 60.6799 14.399C55.4939 14.399 51.4562 18.3997 51.4562 23.9561C51.4562 29.4384 55.4939 33.5502 60.791 33.5502C65.5325 33.5502 68.2366 30.4756 69.0886 27.6604L65.3102 26.2898C64.9028 27.6604 63.6063 29.6236 60.791 29.6236C58.0869 29.6236 55.7532 27.5863 55.7532 23.9561C55.7532 20.3259 58.0869 18.3626 60.7169 18.3626ZM75.7199 22.4003C75.794 20.1036 77.0905 18.3256 79.4612 18.3256C82.1653 18.3256 83.1655 20.1036 83.1655 22.3262V32.9945H87.4625V21.5853C87.4625 17.6218 85.314 14.4361 80.8688 14.4361C78.9796 14.4361 76.9423 15.1029 75.7199 16.6957V6.17554H71.4229V32.9945H75.7199V22.4003ZM90.1006 28.1049C90.1006 30.9572 92.4343 33.5502 96.2126 33.5502C99.139 33.5502 100.917 32.0685 101.769 30.6979C101.769 32.1425 101.917 32.8834 101.954 32.9945H105.955C105.918 32.8093 105.733 31.7351 105.733 30.1052V21.1408C105.733 17.5477 103.621 14.399 98.0648 14.399C93.6196 14.399 90.8044 17.1772 90.471 20.2888L94.3975 21.1779C94.5828 19.3628 95.8422 17.9181 98.1018 17.9181C100.473 17.9181 101.51 19.1405 101.51 20.6593C101.51 21.289 101.213 21.8076 100.176 21.9558L95.5459 22.6596C92.4713 23.1041 90.1006 24.8822 90.1006 28.1049ZM97.0276 30.1793C95.3236 30.1793 94.3975 29.068 94.3975 27.8456C94.3975 26.3639 95.4718 25.623 96.8053 25.4008L101.51 24.6969V25.5119C101.51 29.0309 99.4354 30.1793 97.0276 30.1793ZM126.337 14.9547H120.632L113.705 22.2521V6.17554H109.445V32.9945H113.705V27.9567L115.928 25.623L121.225 32.9945H126.485L118.928 22.5855L126.337 14.9547ZM138.67 14.8436C138.485 14.8065 138.04 14.7324 137.522 14.7324C135.151 14.7324 133.151 15.8808 132.299 17.844V14.9547H128.113V32.9945H132.41V24.4006C132.41 21.0297 133.929 19.1035 137.262 19.1035C137.707 19.1035 138.189 19.1405 138.67 19.2146V14.8436ZM139.7 28.1049C139.7 30.9572 142.034 33.5502 145.812 33.5502C148.739 33.5502 150.517 32.0685 151.369 30.6979C151.369 32.1425 151.517 32.8834 151.554 32.9945H155.555C155.518 32.8093 155.332 31.7351 155.332 30.1052V21.1408C155.332 17.5477 153.221 14.399 147.664 14.399C143.219 14.399 140.404 17.1772 140.071 20.2888L143.997 21.1779C144.182 19.3628 145.442 17.9181 147.702 17.9181C150.072 17.9181 151.109 19.1405 151.109 20.6593C151.109 21.289 150.813 21.8076 149.776 21.9558L145.146 22.6596C142.071 23.1041 139.7 24.8822 139.7 28.1049ZM146.627 30.1793C144.923 30.1793 143.997 29.068 143.997 27.8456C143.997 26.3639 145.071 25.623 146.405 25.4008L151.109 24.6969V25.5119C151.109 29.0309 149.035 30.1793 146.627 30.1793Z"
			fill="#2D3748"
		></path>
		<path
			d="M40.25 20.4167C40.25 9.37105 31.2957 0.416748 20.25 0.416748C9.2043 0.416748 0.25 9.37105 0.25 20.4167C0.25 31.4624 9.2043 40.4167 20.25 40.4167C31.2957 40.4167 40.25 31.4624 40.25 20.4167Z"
			fill="url(#paint0_linear_824_876)"
		></path>
		<path
			d="M11.0761 21.2704L24.7091 7.73124C24.9638 7.47831 25.3737 7.78611 25.2018 8.1012L20.1277 17.4011C20.0144 17.6085 20.1646 17.8615 20.4008 17.8615H29.1697C29.4522 17.8615 29.5885 18.2075 29.382 18.4004L14.0158 32.7415C13.7403 32.9986 13.3302 32.6363 13.5514 32.3313L20.8254 22.2965C20.9745 22.0908 20.8276 21.8025 20.5734 21.8025H11.2955C11.0177 21.8025 10.879 21.4662 11.0761 21.2704Z"
			fill="white"
		></path>
	</g>
	<defs>
		<linearGradient
			id="paint0_linear_824_876"
			x1="20.25"
			y1="0.416748"
			x2="20.25"
			y2="40.4167"
			gradientUnits="userSpaceOnUse"
		>
			<stop stop-color="#7BCBD4"></stop>
			<stop offset="1" stop-color="#29C6B7"></stop>
		</linearGradient>
		<clipPath id="clip0_824_876">
			<rect
				width="155.331"
				height="40"
				fill="white"
				transform="translate(0.25 0.416748)"
			></rect>
		</clipPath>
	</defs>
</svg>