<svg
	width="174"
	height="34"
	viewBox="0 0 206 40"
	fill="none"
	xmlns="http://www.w3.org/2000/svg"
	aria-label="Supabase Logo"
	className="css-w988qx"
>
	<g clip-path="url(#clip0_838_1497)">
		<path
			d="M53.5919 23.6322C53.8039 25.615 55.6074 29.0139 60.8414 29.0139C65.4032 29.0139 67.5961 26.1106 67.5961 23.2782C67.5961 20.7289 65.863 18.6399 62.4329 17.9318L59.9572 17.4007C59.0025 17.2237 58.366 16.6926 58.366 15.8428C58.366 14.8515 59.3561 14.108 60.594 14.108C62.5742 14.108 63.3168 15.418 63.4584 16.4448L67.3837 15.5596C67.1717 13.6831 65.5094 10.532 60.5586 10.532C56.8099 10.532 54.0517 13.1166 54.0517 16.2323C54.0517 18.6753 55.572 20.6935 58.9317 21.437L61.2304 21.9681C62.5742 22.2513 63.1048 22.8887 63.1048 23.6676C63.1048 24.5882 62.3621 25.4025 60.806 25.4025C58.755 25.4025 57.7292 24.1279 57.6234 22.747L53.5919 23.6322Z"
			fill="#1F1F1F"
		></path>
		<path
			d="M82.6269 28.4828H87.1182C87.0474 27.8809 86.9412 26.6771 86.9412 25.3316V11.063H82.2375V21.1891C82.2375 23.2073 81.0354 24.6235 78.949 24.6235C76.7565 24.6235 75.766 23.0656 75.766 21.1183V11.063H71.0627V22.0743C71.0627 25.8627 73.4673 28.9431 77.6758 28.9431C79.5143 28.9431 81.531 28.235 82.4857 26.6063C82.4857 27.3144 82.5561 28.1287 82.6269 28.4828Z"
			fill="#1F1F1F"
		></path>
		<path
			d="M96.6641 35.21V26.7834C97.5126 27.9517 99.2811 28.9078 101.686 28.9078C106.601 28.9078 109.89 25.013 109.89 19.7375C109.89 14.5683 106.955 10.6736 101.863 10.6736C99.246 10.6736 97.3009 11.8419 96.5228 13.1874V11.063H91.9611V35.21H96.6641ZM105.257 19.7729C105.257 22.8887 103.348 24.6944 100.943 24.6944C98.5388 24.6944 96.5936 22.8533 96.5936 19.7729C96.5936 16.6926 98.5388 14.8869 100.943 14.8869C103.348 14.8869 105.257 16.6926 105.257 19.7729Z"
			fill="#1F1F1F"
		></path>
		<path
			d="M112.554 23.7384C112.554 26.4647 114.817 28.9786 118.53 28.9786C121.111 28.9786 122.773 27.7747 123.657 26.3939C123.657 27.0666 123.728 28.0225 123.834 28.4828H128.149C128.042 27.8809 127.937 26.6417 127.937 25.7212V17.1529C127.937 13.6477 125.886 10.532 120.369 10.532C115.701 10.532 113.19 13.5414 112.907 16.2677L117.08 17.1529C117.222 15.6304 118.353 14.3204 120.404 14.3204C122.385 14.3204 123.339 15.3472 123.339 16.5864C123.339 17.1883 123.022 17.684 122.031 17.8256L117.752 18.4629C114.852 18.8878 112.554 20.6227 112.554 23.7384ZM119.52 25.4733C118 25.4733 117.257 24.482 117.257 23.4552C117.257 22.1098 118.211 21.437 119.414 21.26L123.339 20.6581V21.437C123.339 24.5174 121.501 25.4733 119.52 25.4733Z"
			fill="#1F1F1F"
		></path>
		<path
			d="M137.24 28.4829V26.3586C138.159 27.8456 139.998 28.9078 142.403 28.9078C147.354 28.9078 150.608 24.9777 150.608 19.7022C150.608 14.5329 147.672 10.6028 142.58 10.6028C139.998 10.6028 138.088 11.7358 137.31 12.975V2.84888H132.678V28.4829H137.24ZM145.904 19.7376C145.904 22.9242 143.994 24.6945 141.589 24.6945C139.22 24.6945 137.24 22.8888 137.24 19.7376C137.24 16.551 139.22 14.8162 141.589 14.8162C143.994 14.8162 145.904 16.551 145.904 19.7376Z"
			fill="#1F1F1F"
		></path>
		<path
			d="M153.271 23.7384C153.271 26.4647 155.534 28.9786 159.247 28.9786C161.828 28.9786 163.491 27.7747 164.375 26.3939C164.375 27.0666 164.446 28.0225 164.551 28.4828H168.866C168.76 27.8809 168.654 26.6417 168.654 25.7212V17.1529C168.654 13.6477 166.603 10.532 161.086 10.532C156.418 10.532 153.907 13.5414 153.624 16.2677L157.797 17.1529C157.939 15.6304 159.07 14.3204 161.121 14.3204C163.102 14.3204 164.057 15.3472 164.057 16.5864C164.057 17.1883 163.738 17.684 162.748 17.8256L158.469 18.4629C155.57 18.8878 153.271 20.6227 153.271 23.7384ZM160.238 25.4733C158.717 25.4733 157.974 24.482 157.974 23.4552C157.974 22.1098 158.928 21.437 160.131 21.26L164.057 20.6581V21.437C164.057 24.5174 162.218 25.4733 160.238 25.4733Z"
			fill="#1F1F1F"
		></path>
		<path
			d="M171.91 23.6322C172.121 25.615 173.925 29.0139 179.159 29.0139C183.721 29.0139 185.913 26.1106 185.913 23.2782C185.913 20.7289 184.181 18.6399 180.75 17.9318L178.275 17.4007C177.32 17.2237 176.684 16.6926 176.684 15.8428C176.684 14.8515 177.674 14.108 178.911 14.108C180.892 14.108 181.635 15.418 181.777 16.4448L185.702 15.5596C185.489 13.6831 183.827 10.532 178.876 10.532C175.127 10.532 172.37 13.1166 172.37 16.2323C172.37 18.6753 173.89 20.6935 177.25 21.437L179.548 21.9681C180.892 22.2513 181.423 22.8887 181.423 23.6676C181.423 24.5882 180.68 25.4025 179.124 25.4025C177.073 25.4025 176.047 24.1279 175.941 22.747L171.91 23.6322Z"
			fill="#1F1F1F"
		></path>
		<path
			d="M193.057 17.7902C193.163 16.1969 194.507 14.3558 196.947 14.3558C199.634 14.3558 200.766 16.0553 200.837 17.7902H193.057ZM201.297 22.3222C200.731 23.88 199.528 24.9776 197.336 24.9776C195.002 24.9776 193.057 23.3135 192.951 21.0122H205.399C205.399 20.9413 205.469 20.2332 205.469 19.5605C205.469 13.9663 202.252 10.532 196.876 10.532C192.421 10.532 188.318 14.1433 188.318 19.7021C188.318 25.5795 192.526 29.0139 197.301 29.0139C201.579 29.0139 204.338 26.5001 205.222 23.4906L201.297 22.3222Z"
			fill="#1F1F1F"
		></path>
		<path
			d="M22.5514 39.0385C21.5392 40.3132 19.4868 39.6148 19.4624 37.9872L19.1058 14.1814H35.1127C38.012 14.1814 39.629 17.5301 37.8262 19.8008L22.5514 39.0385Z"
			fill="url(#paint0_linear_838_1497)"
		></path>
		<path
			d="M22.5514 39.0385C21.5392 40.3132 19.4868 39.6148 19.4624 37.9872L19.1058 14.1814H35.1127C38.012 14.1814 39.629 17.5301 37.8262 19.8008L22.5514 39.0385Z"
			fill="url(#paint1_linear_838_1497)"
			fill-opacity="0.2"
		></path>
		<path
			d="M16.0414 0.733061C17.0536 -0.541771 19.106 0.156745 19.1304 1.78438L19.2867 25.5901H3.48005C0.580665 25.5901 -1.03637 22.2414 0.766548 19.9707L16.0414 0.733061Z"
			fill="#3ECF8E"
		></path>
	</g>
	<defs>
		<linearGradient
			id="paint0_linear_838_1497"
			x1="19.1058"
			y1="19.4597"
			x2="33.3322"
			y2="25.4263"
			gradientUnits="userSpaceOnUse"
		>
			<stop stop-color="#249361"></stop>
			<stop offset="1" stop-color="#3ECF8E"></stop>
		</linearGradient>
		<linearGradient
			id="paint1_linear_838_1497"
			x1="12.7985"
			y1="10.824"
			x2="19.2865"
			y2="23.0373"
			gradientUnits="userSpaceOnUse"
		>
			<stop></stop>
			<stop offset="1" stop-opacity="0"></stop>
		</linearGradient>
		<clipPath id="clip0_838_1497">
			<rect width="205.664" height="40" fill="white"></rect>
		</clipPath>
	</defs>
</svg>