<svg
	width="152"
	height="26"
	viewBox="0 0 152 26"
	fill="none"
	xmlns="http://www.w3.org/2000/svg"
	aria-label="Textualize Logo"
	className="css-1mdfzm7"
>
	<g clip-path="url(#clip0_824_861)">
		<path
			d="M46.1845 13.9784L50.77 6.90991H46.8884C46.4612 6.90981 46.0409 7.01661 45.6656 7.22057C45.2904 7.42452 44.9721 7.71916 44.7399 8.07762L40.9137 13.9784H46.1845Z"
			fill="#2C292D"
		></path>
		<path
			d="M44.6822 19.7799L40.9137 13.9783H46.1845L50.8737 21.1923H47.2806C46.7642 21.1915 46.2561 21.062 45.8024 20.8155C45.3486 20.5689 44.9636 20.2129 44.6822 19.7799Z"
			fill="url(#paint0_linear_824_861)"
		></path>
		<path
			d="M39.4178 13.9786L33.2031 4.28613H37.5877C38.3245 4.28755 39.049 4.47456 39.6942 4.8299C40.3396 5.18523 40.885 5.69745 41.2801 6.31923L46.1933 13.9762L39.4178 13.9786Z"
			fill="url(#paint1_linear_824_861)"
		></path>
		<path
			d="M41.5709 21.1346L46.1864 13.9807H39.4178L33.2031 23.6246H37.0362C37.9402 23.6228 38.8292 23.394 39.6216 22.9588C40.414 22.5237 41.0842 21.8965 41.5709 21.1346Z"
			fill="url(#paint2_linear_824_861)"
		></path>
		<path
			d="M6.60006 5.0891H0V2.97985C0 2.43267 0.217363 1.90792 0.604269 1.52101C0.991174 1.13411 1.51593 0.916748 2.0631 0.916748H18.741V3.026C18.741 3.57317 18.5236 4.09792 18.1368 4.48484C17.7498 4.87174 17.225 5.0891 16.6779 5.0891H12.1409V21.2177C12.1409 21.2789 12.1166 21.3376 12.0733 21.3809C12.03 21.4241 11.9713 21.4485 11.9101 21.4485H7.987C7.62071 21.4455 7.27028 21.2986 7.01125 21.0396C6.75224 20.7806 6.60539 20.4301 6.60238 20.0639L6.60006 5.0891Z"
			fill="#2C292D"
		></path>
		<path
			d="M31.4979 14.6315H22.4355C22.47 16.5124 23.5639 18.257 26.7785 18.257C28.454 18.257 30.3694 17.5646 31.4633 16.6854V20.1054C30.097 21.1646 27.9763 21.8501 25.1724 21.8501C20.4508 21.8501 17.2015 18.5316 17.2015 13.9485C17.2015 9.22915 20.9308 6.2522 24.8978 6.2522C28.7286 6.2522 31.7379 8.57837 31.7379 12.2038C31.7388 13.019 31.6584 13.8322 31.4979 14.6315ZM27.1131 12.1692C27.4548 10.6299 26.737 9.26377 24.9924 9.26377C23.7624 9.26377 22.8046 10.0161 22.53 12.1692H27.1131Z"
			fill="#2C292D"
		></path>
		<path
			d="M60.8681 10.0483V21.4392H57.6372C57.0901 21.4392 56.5654 21.2219 56.1785 20.835C55.7915 20.448 55.5743 19.9232 55.5743 19.3761V10.0483H52.6849V6.66291H55.5604V2.62671H60.8681V6.66291H63.7413V10.0483H60.8681Z"
			fill="#2C292D"
		></path>
		<path
			d="M81.7209 21.4394H78.6931C78.1695 21.4392 77.6655 21.2397 77.2835 20.8815C76.9016 20.5231 76.6704 20.0327 76.637 19.5101L76.5909 18.804C75.7024 20.754 73.4109 21.8501 71.4261 21.8501C67.5031 21.8501 65.9546 19.1132 65.9546 15.4532V6.66309H71.2624V14.4955C71.2624 16.8886 71.9131 17.7447 73.4524 17.7447C75.0931 17.7447 76.427 16.1709 76.427 14.4609V6.66309H81.7347L81.7209 21.4394Z"
			fill="#2C292D"
		></path>
		<path
			d="M96.5412 19.5124L96.5297 19.3531C95.2651 21.13 93.0405 21.8501 91.3304 21.8501C87.3635 21.8501 84.4904 18.6331 84.4904 14.05C84.4904 9.50146 87.3635 6.2522 91.3304 6.2522C93.0405 6.2522 95.2651 6.97221 96.5297 8.74915L96.6659 6.6722H101.558V21.4416H98.5974C98.0735 21.442 97.5692 21.2427 97.1871 20.8842C96.8051 20.5259 96.5741 20.0352 96.5412 19.5124ZM93.1096 10.0161C91.2289 10.0161 89.7935 11.4861 89.7935 14.05C89.7935 16.6139 91.2289 18.0861 93.1096 18.0861C94.9905 18.0861 96.4281 16.6161 96.4281 14.05C96.4281 11.4838 94.9905 10.0161 93.1096 10.0161Z"
			fill="#2C292D"
		></path>
		<path
			d="M105.176 19.3831V0.921387H110.484V21.4439H107.237C106.966 21.4445 106.698 21.3916 106.448 21.2882C106.198 21.185 105.97 21.0331 105.779 20.8416C105.587 20.6502 105.435 20.4227 105.332 20.1725C105.229 19.9221 105.176 19.6539 105.176 19.3831Z"
			fill="#2C292D"
		></path>
		<path
			d="M114.041 4.57679V0.916748H119.348V4.57679H114.041ZM114.041 19.3808V6.66296H119.348V21.4324H116.097C115.552 21.4324 115.03 21.2164 114.644 20.8318C114.259 20.4471 114.042 19.9254 114.041 19.3808Z"
			fill="#2C292D"
		></path>
		<path
			d="M121.734 19.4547L128.54 10.2239H122.145V6.66309H134.971V8.65235L128.164 17.8832H135.141V21.4417H121.734V19.4547Z"
			fill="#2C292D"
		></path>
		<path
			d="M151.01 14.6315H141.947C141.982 16.5124 143.076 18.257 146.291 18.257C147.966 18.257 149.881 17.5646 150.977 16.6854V20.1054C149.61 21.1646 147.489 21.8501 144.685 21.8501C139.964 21.8501 136.714 18.5316 136.714 13.9485C136.714 9.22915 140.444 6.2522 144.41 6.2522C148.241 6.2522 151.25 8.57837 151.25 12.2038C151.251 13.019 151.171 13.8322 151.01 14.6315ZM146.625 12.1692C146.969 10.6299 146.249 9.26377 144.507 9.26377C143.275 9.26377 142.317 10.0161 142.045 12.1692H146.625Z"
			fill="#2C292D"
		></path>
		<path
			d="M60.8615 23.6477H46.1682V25.8493H60.8615V23.6477Z"
			fill="url(#paint3_linear_824_861)"
		></path>
	</g>
	<defs>
		<linearGradient
			id="paint0_linear_824_861"
			x1="49.5376"
			y1="21.1576"
			x2="44.9637"
			y2="16.436"
			gradientUnits="userSpaceOnUse"
		>
			<stop stop-color="#2C292D"></stop>
			<stop offset="0.51" stop-color="#131214"></stop>
			<stop offset="1"></stop>
		</linearGradient>
		<linearGradient
			id="paint1_linear_824_861"
			x1="39.6924"
			y1="4.28845"
			x2="39.6924"
			y2="13.9786"
			gradientUnits="userSpaceOnUse"
		>
			<stop stop-color="#F18F34"></stop>
			<stop offset="0.61" stop-color="#E95F32"></stop>
			<stop offset="1" stop-color="#E3312D"></stop>
		</linearGradient>
		<linearGradient
			id="paint2_linear_824_861"
			x1="39.6924"
			y1="23.6223"
			x2="39.6924"
			y2="13.9783"
			gradientUnits="userSpaceOnUse"
		>
			<stop stop-color="#FFEF26"></stop>
			<stop offset="0.02" stop-color="#FFEA21"></stop>
			<stop offset="0.14" stop-color="#FED70F"></stop>
			<stop offset="0.25" stop-color="#FDCC04"></stop>
			<stop offset="0.38" stop-color="#FDC800"></stop>
			<stop offset="1" stop-color="#F18F34"></stop>
		</linearGradient>
		<linearGradient
			id="paint3_linear_824_861"
			x1="4187.92"
			y1="391.121"
			x2="5123.44"
			y2="391.121"
			gradientUnits="userSpaceOnUse"
		>
			<stop stop-color="#FFEF26"></stop>
			<stop offset="0.02" stop-color="#FFEA21"></stop>
			<stop offset="0.14" stop-color="#FED70F"></stop>
			<stop offset="0.25" stop-color="#FDCC04"></stop>
			<stop offset="0.38" stop-color="#FDC800"></stop>
			<stop offset="1" stop-color="#F18F34"></stop>
		</linearGradient>
		<clipPath id="clip0_824_861">
			<rect
				width="151.25"
				height="25"
				fill="white"
				transform="translate(0 0.916748)"
			></rect>
		</clipPath>
	</defs>
</svg>