<svg
	width="80"
	height="34"
	viewBox="0 0 94 41"
	fill="none"
	xmlns="http://www.w3.org/2000/svg"
	aria-label="JinaAI Logo"
	className="css-cpoyws"
>
	<g clip-path="url(#clip0_824_857)">
		<path
			d="M6.12 40.3367C9.5 40.3367 12.24 37.5967 12.24 34.2167C12.24 30.8367 9.5 28.0967 6.12 28.0967C2.74 28.0967 0 30.8367 0 34.2167C0 37.5967 2.74 40.3367 6.12 40.3367Z"
			fill="#EB6161"
		></path>
		<path
			fill-rule="evenodd"
			clip-rule="evenodd"
			d="M25.4 14.9368C26.2 14.9368 26.84 15.5768 26.84 16.3768L26.76 28.0968C26.76 34.7768 21.4 40.2168 14.72 40.3368H14.52V28.1368H14.56L14.6 16.4168C14.6 15.6168 15.24 14.9768 16.04 14.9768H25.4V14.9368V14.9368ZM44.2 14.9368C45 14.9368 45.64 15.5768 45.64 16.3768V32.7768C45.64 33.5768 45 34.2168 44.2 34.2168H34.84C34.04 34.2168 33.4 33.5768 33.4 32.7768V16.3768C33.4 15.5768 34.04 14.9368 34.84 14.9368H44.2V14.9368ZM58.92 14.8968H59.12C65.12 14.9768 70 19.8168 70.16 25.8168V32.7368C70.16 33.5368 69.52 34.1768 68.72 34.1768H53.6C52.8 34.1768 52.16 33.5368 52.16 32.7368V16.3368C52.16 15.5368 52.8 14.8968 53.6 14.8968H58.92V14.8968ZM83.68 34.0168C78.64 33.6968 74.6 29.4968 74.6 24.3768C74.6 19.0568 78.92 14.7368 84.24 14.7368C89.36 14.7368 93.56 18.7368 93.88 23.8168V32.5768C93.88 33.3768 93.24 34.0168 92.44 34.0168H83.68V34.0168Z"
			fill="#009191"
		></path>
		<path
			d="M39.499 12.6567C42.879 12.6567 45.619 9.91675 45.619 6.53675C45.619 3.15675 42.879 0.416748 39.499 0.416748C36.119 0.416748 33.379 3.15675 33.379 6.53675C33.379 9.91675 36.119 12.6567 39.499 12.6567Z"
			fill="#FBCB67"
		></path>
	</g>
	<defs>
		<clipPath id="clip0_824_857">
			<rect
				width="94"
				height="40"
				fill="white"
				transform="translate(0 0.416748)"
			></rect>
		</clipPath>
	</defs>
</svg>