<svg
	width="178"
	height="40"
	viewBox="0 0 200 45"
	fill="none"
	xmlns="http://www.w3.org/2000/svg"
	aria-label="Vendure Logo"
	className="css-2p577y"
>
	<path
		d="M69.4253 15.8552H72.3001L65.2174 35.3217H62.0926L55.0514 15.8552H58.0096L63.7591 32.2852L69.4253 15.8552V15.8552Z"
		fill="#17C1FF"
		stroke="#17C1FF"
		stroke-width="0.00589404"
		stroke-miterlimit="2"
		stroke-linejoin="round"
	></path>
	<path
		d="M83.341 15.1897C85.0908 15.1897 86.674 15.6194 88.0904 16.4791C89.5071 17.3388 90.618 18.5102 91.4236 19.9939C92.2291 21.4774 92.6319 23.1342 92.6319 24.9644C92.6319 25.4913 92.6179 25.8935 92.5902 26.1707H76.5498C76.6609 28.1672 77.3136 29.8726 78.508 31.2869C79.7022 32.701 81.3271 33.4082 83.3826 33.4082C85.0491 33.4082 86.4309 33.0962 87.5281 32.4724C88.6252 31.8484 89.5071 30.9819 90.1738 29.8726L92.4235 31.3701C91.5069 32.812 90.2987 33.9421 88.7988 34.76C87.299 35.5781 85.5212 35.987 83.4659 35.987C81.5772 35.987 79.8966 35.5435 78.4245 34.656C76.9524 33.7686 75.7998 32.5347 74.9666 30.9541C74.1333 29.3735 73.7167 27.5848 73.7167 25.5883C73.7167 23.5917 74.1263 21.8032 74.9458 20.2226C75.7652 18.642 76.904 17.4079 78.3621 16.5207C79.8204 15.6332 81.4799 15.1897 83.341 15.1897V15.1897ZM89.7988 23.8413C89.5209 21.817 88.8404 20.2989 87.7573 19.2868C86.674 18.2746 85.2019 17.7685 83.341 17.7685C81.5355 17.7685 80.0564 18.3439 78.9038 19.4946C77.751 20.6455 77.0219 22.0944 76.7164 23.8413H89.7988Z"
		fill="#17C1FF"
		stroke="#17C1FF"
		stroke-width="0.00589404"
		stroke-miterlimit="2"
		stroke-linejoin="round"
	></path>
	<path
		d="M106.089 15.1897C107.45 15.1897 108.707 15.4669 109.86 16.0216C111.012 16.576 111.929 17.3941 112.609 18.4757C113.29 19.557 113.63 20.8326 113.63 22.3023V35.3216H110.797V23.5501C110.797 19.6957 109.075 17.7685 105.631 17.7685C103.631 17.7685 102.131 18.4757 101.131 19.8898C100.131 21.3041 99.6313 23.2035 99.6313 25.5883V35.3216H96.7982V15.8551H99.6313V19.0995C100.298 17.8517 101.18 16.8881 102.277 16.2087C103.374 15.5293 104.645 15.1897 106.089 15.1897V15.1897Z"
		fill="#17C1FF"
		stroke="#17C1FF"
		stroke-width="0.00589404"
		stroke-miterlimit="2"
		stroke-linejoin="round"
	></path>
	<path
		d="M137.295 5.12378V35.3216H134.462V32.4516C133.656 33.5607 132.67 34.4272 131.504 35.0512C130.337 35.6752 129.06 35.987 127.671 35.987C125.81 35.987 124.143 35.5435 122.671 34.6561C121.199 33.7686 120.046 32.5348 119.213 30.9542C118.38 29.3735 117.963 27.5711 117.963 25.5467C117.963 23.5502 118.373 21.7687 119.192 20.2018C120.012 18.635 121.151 17.408 122.609 16.5207C124.067 15.6333 125.726 15.1897 127.588 15.1897C129.004 15.1897 130.303 15.5016 131.483 16.1256C132.663 16.7494 133.656 17.6298 134.462 18.7667V5.12378H137.295V5.12378ZM127.588 33.4082C128.921 33.4082 130.108 33.0754 131.15 32.4099C132.191 31.7445 133.004 30.8154 133.587 29.623C134.17 28.4307 134.462 27.0858 134.462 25.5883C134.462 24.091 134.17 22.7461 133.587 21.5536C133.004 20.3613 132.191 19.4323 131.15 18.7667C130.108 18.1013 128.921 17.7685 127.588 17.7685C126.282 17.7685 125.115 18.1013 124.088 18.7667C123.06 19.4323 122.254 20.3543 121.671 21.5328C121.088 22.7115 120.796 24.0494 120.796 25.5467C120.796 27.072 121.088 28.4307 121.671 29.623C122.254 30.8154 123.06 31.7445 124.088 32.4099C125.115 33.0754 126.282 33.4082 127.588 33.4082V33.4082Z"
		fill="#17C1FF"
		stroke="#17C1FF"
		stroke-width="0.00589404"
		stroke-miterlimit="2"
		stroke-linejoin="round"
	></path>
	<path
		d="M159.668 15.8552V35.3217H156.835V32.0774C156.168 33.3252 155.287 34.2888 154.19 34.9682C153.092 35.6475 151.822 35.9871 150.377 35.9871C149.016 35.9871 147.759 35.7099 146.607 35.1553C145.454 34.6008 144.537 33.7827 143.857 32.7012C143.176 31.6196 142.836 30.3442 142.836 28.8745V15.8552H145.669V27.6267C145.669 31.4811 147.391 33.4083 150.836 33.4083C152.835 33.4083 154.335 32.7012 155.335 31.287C156.335 29.8727 156.835 27.9733 156.835 25.5884V15.8552H159.668V15.8552Z"
		fill="#17C1FF"
		stroke="#17C1FF"
		stroke-width="0.00589404"
		stroke-miterlimit="2"
		stroke-linejoin="round"
	></path>
	<path
		d="M174.5 15.1897C175.167 15.1897 175.806 15.2866 176.417 15.4807V18.0597C175.834 17.7823 175.195 17.6438 174.5 17.6438C173.306 17.6438 172.195 17.9766 171.167 18.642C170.14 19.3075 169.313 20.2711 168.688 21.5328C168.063 22.7946 167.751 24.2851 167.751 26.0042V35.3216H164.918V15.8551H167.751V19.7651C168.501 18.3232 169.452 17.2001 170.605 16.3959C171.758 15.5917 173.056 15.1897 174.5 15.1897V15.1897Z"
		fill="#17C1FF"
		stroke="#17C1FF"
		stroke-width="0.00589404"
		stroke-miterlimit="2"
		stroke-linejoin="round"
	></path>
	<path
		d="M187.041 15.1897C188.791 15.1897 190.374 15.6194 191.791 16.4791C193.207 17.3388 194.318 18.5102 195.124 19.9939C195.929 21.4774 196.332 23.1342 196.332 24.9644C196.332 25.4913 196.318 25.8935 196.29 26.1707H180.25C180.361 28.1672 181.014 29.8726 182.208 31.2869C183.403 32.701 185.027 33.4082 187.083 33.4082C188.749 33.4082 190.131 33.0962 191.228 32.4724C192.325 31.8484 193.207 30.9819 193.874 29.8726L196.124 31.3701C195.207 32.812 193.999 33.9421 192.499 34.76C190.999 35.5781 189.221 35.987 187.166 35.987C185.277 35.987 183.597 35.5435 182.125 34.656C180.653 33.7686 179.5 32.5347 178.667 30.9541C177.833 29.3735 177.417 27.5848 177.417 25.5883C177.417 23.5917 177.827 21.8032 178.646 20.2226C179.465 18.642 180.604 17.4079 182.062 16.5207C183.52 15.6332 185.18 15.1897 187.041 15.1897V15.1897ZM193.499 23.8413C193.221 21.817 192.541 20.2989 191.457 19.2868C190.374 18.2746 188.902 17.7685 187.041 17.7685C185.236 17.7685 183.757 18.3439 182.604 19.4946C181.451 20.6455 180.722 22.0944 180.417 23.8413H193.499Z"
		fill="#17C1FF"
		stroke="#17C1FF"
		stroke-width="0.00589404"
		stroke-miterlimit="2"
		stroke-linejoin="round"
	></path>
	<path
		fill-rule="evenodd"
		clip-rule="evenodd"
		d="M4.80798 12.4465L12.7175 18.3451L12.7042 29.4076L4.80798 22.099V12.4465V12.4465Z"
		fill="#30C6FD"
	></path>
	<path
		fill-rule="evenodd"
		clip-rule="evenodd"
		d="M4.80798 12.4465L15.6978 7.70996L23.9891 12.4L12.7175 18.3451L4.80798 12.4465V12.4465Z"
		fill="#17C1FF"
	></path>
	<path
		fill-rule="evenodd"
		clip-rule="evenodd"
		d="M15.0129 19.9741L26.3283 28.5878L26.3226 41.9329L15.0129 31.53V19.9741V19.9741Z"
		fill="#30C6FD"
	></path>
	<path
		fill-rule="evenodd"
		clip-rule="evenodd"
		d="M26.2628 13.6511L37.6439 19.974L26.3283 28.5901L15.0129 19.974L26.2628 13.6511V13.6511Z"
		fill="#17C1FF"
	></path>
	<path
		fill-rule="evenodd"
		clip-rule="evenodd"
		d="M26.3284 41.9329L37.6157 31.5186L37.6439 19.9741L26.3227 28.5878L26.3284 41.9329Z"
		fill="#13B7F3"
	></path>
	<path
		fill-rule="evenodd"
		clip-rule="evenodd"
		d="M28.5374 12.4465L36.7976 7.70996L47.7177 12.3649L39.8166 18.3451L28.5374 12.4465Z"
		fill="#17C1FF"
	></path>
	<path
		fill-rule="evenodd"
		clip-rule="evenodd"
		d="M39.8166 18.345L39.8026 29.5197L47.7177 22.1128V12.3647L39.8166 18.345V18.345Z"
		fill="#13B7F3"
	></path>
</svg>